PathFileType	4	(X/Y/Z)	./resultDataOpenSim/trcMotMarkerGrf/sub09/qtm-05-02.trc
DataRate	CameraRate	NumFrames	NumMarkers	Units	OrigDataRate	OrigDataStartFrame	OrigNumFrames
250.000000	250.000000	10	24	m	250.000000	386	514
Frame#	Time	L.Toe.Tip			R.Toe.Tip			L.Ankle.Lat			R.Ankle.Lat			L.Ankle.Med			R.Ankle.Med			L.Heel			R.Heel			L.Knee.Lat			R.Knee.Lat			L.Knee.Med			R.Knee.Med			L.Thigh.Upper			R.Thigh.Upper			L.ASIS			R.ASIS			V.Sacral			L.Acromium			R.Acromium			C7			L.Elbow			R.Elbow			L.Wrist.Lat			R.Wrist.Lat
		X1	Y1	Z1	X2	Y2	Z2	X3	Y3	Z3	X4	Y4	Z4	X5	Y5	Z5	X6	Y6	Z6	X7	Y7	Z7	X8	Y8	Z8	X9	Y9	Z9	X10	Y10	Z10	X11	Y11	Z11	X12	Y12	Z12	X13	Y13	Z13	X14	Y14	Z14	X15	Y15	Z15	X16	Y16	Z16	X17	Y17	Z17	X18	Y18	Z18	X19	Y19	Z19	X20	Y20	Z20	X21	Y21	Z21	X22	Y22	Z22	X23	Y23	Z23	X24	Y24	Z24

386	1.54	0.86033756	0.1656887	0.045865875	1.0973065	0.039465868	0.15865731	0.82762986	0.31562132	-0.0016496061	0.95110708	0.063595081	0.18800188	0.84327728	0.30715188	0.094473231	0.96794809	0.1026512	0.097487804	0.7580297	0.35815466	0.03761651	0.88124775	0.050849398	0.13598801	1.1796713	0.50659323	-0.017480274	1.0861393	0.49946416	0.25926934	1.1751833	0.49923448	0.11074373	1.0704726	0.49088996	0.13061837	1.0147002	0.88189775	-0.050555537	1.0070147	0.90268036	0.31656641	1.0885278	0.96716746	0.007376331	1.0916146	0.98033366	0.24500716	0.92232746	1.0392605	0.12292662	1.1112952	1.4190774	-0.049011142	1.0890343	1.44098	0.28157719	1.0320007	1.4833761	0.1107489	0.96046039	1.0785722	-0.089036415	0.92956302	1.1069776	0.36877245	1.0792243	0.84470193	-0.11467322	1.1070624	0.89232142	0.38079275
387	1.544	0.87789222	0.16292505	0.045503259	1.0973906	0.039496769	0.15873441	0.84016841	0.3114044	-0.00091455071	0.95128009	0.064224013	0.18819008	0.85616426	0.3029664	0.09540593	0.96836945	0.10325668	0.097652742	0.76905591	0.35192832	0.039235395	0.8814289	0.051778718	0.13612395	1.1884472	0.50957533	-0.017638344	1.08774	0.49980121	0.25960184	1.1862813	0.50240592	0.11092126	1.0721903	0.49116292	0.13080348	1.0192905	0.88333364	-0.051064852	1.011471	0.90339738	0.31676084	1.0935329	0.96863649	0.0074360214	1.0967156	0.9813481	0.24506497	0.92725813	1.0402975	0.12299044	1.1154234	1.4203932	-0.049214561	1.0938686	1.4422427	0.28146492	1.0365183	1.4846146	0.11078728	0.96411469	1.0802321	-0.089096367	0.93502953	1.1079403	0.368992	1.0811718	0.84577252	-0.11568045	1.113389	0.89388343	0.37997847
388	1.548	0.89540193	0.16001894	0.045243998	1.097472	0.039530379	0.15881747	0.85276367	0.30693043	-0.00011077974	0.95150674	0.06485733	0.18838118	0.8695445	0.29850924	0.096268721	0.96879513	0.10386721	0.097853811	0.78024043	0.34533732	0.040748747	0.88164387	0.052676264	0.13627773	1.1970735	0.51247267	-0.017817468	1.0893307	0.50016115	0.25992453	1.1974936	0.5055675	0.11108412	1.0740423	0.49141257	0.1310709	1.0243409	0.88472483	-0.05152324	1.0155257	0.90386505	0.31726553	1.0985453	0.97005364	0.0074949781	1.1018068	0.98234177	0.24511692	0.93216192	1.0413094	0.12303627	1.1195632	1.42168	-0.049429065	1.0987089	1.443473	0.28136446	1.0410346	1.4858095	0.11082526	0.9677995	1.081902	-0.089047541	0.94052518	1.1088507	0.36922356	1.0831576	0.84682624	-0.11666753	1.1197224	0.89539227	0.37916223
389	1.552	0.91289578	0.15697395	0.045077043	1.0975468	0.039557693	0.15890035	0.86542156	0.30223019	0.00075732524	0.95174513	0.065493554	0.18856634	0.88360069	0.29381243	0.097044643	0.96922226	0.10449614	0.098093424	0.79166316	0.33841175	0.042091462	0.88189909	0.053533001	0.13646631	1.2055255	0.51525963	-0.01801779	1.0909182	0.50052962	0.26025389	1.2082843	0.50862293	0.11113359	1.0760313	0.49160103	0.13149169	1.0299355	0.88606221	-0.051888499	1.0195443	0.90428353	0.31779881	1.1035998	0.9714159	0.0075321415	1.1068852	0.98330833	0.24515649	0.93702897	1.0422851	0.12306522	1.1237179	1.4229458	-0.049659298	1.1035699	1.444677	0.28129242	1.0455361	1.4869556	0.11084824	0.97151511	1.083557	-0.088933112	0.94605114	1.1097111	0.36946477	1.085179	0.8478634	-0.1176353	1.1260478	0.89684427	0.37834159
390	1.556	0.93043379	0.15379998	0.044985818	1.0976089	0.039565594	0.15898053	0.87817834	0.29731364	0.0016589254	0.95197963	0.066131035	0.18873768	0.89837863	0.2889182	0.097728595	0.96964232	0.10514269	0.098354672	0.80335315	0.33118757	0.043258846	0.88218632	0.054386158	0.13671959	1.2138116	0.51792047	-0.018236817	1.0924985	0.50088904	0.26060372	1.2182535	0.51149879	0.11100127	1.0781465	0.49172149	0.13204231	1.0359034	0.887336	-0.052166348	1.0238028	0.90484933	0.3181011	1.1087041	0.97272704	0.0075437919	1.1119544	0.98424738	0.24518677	0.94193048	1.0432045	0.12306304	1.1278906	1.4241842	-0.049896618	1.108452	1.4458549	0.28124794	1.0500319	1.4880453	0.11086331	0.97523678	1.0851499	-0.088840079	0.95160256	1.1105264	0.36970951	1.0872431	0.84888137	-0.11858733	1.1323545	0.89823753	0.37751302
391	1.56	0.94804099	0.15051141	0.044985359	1.0976511	0.039543247	0.15906071	0.89107045	0.29218271	0.0025683504	0.95221491	0.066770242	0.18889802	0.91365629	0.28387935	0.098325658	0.97000301	0.10577633	0.098616687	0.81531038	0.32367769	0.0443355	0.88248992	0.055294325	0.13705017	1.2219605	0.52045096	-0.018471781	1.0940474	0.50122311	0.2609497	1.2272888	0.51417562	0.11067991	1.0802722	0.4918333	0.13258198	1.0418909	0.88854785	-0.052392036	1.02831	0.90558409	0.31814862	1.1138488	0.97399227	0.0075383108	1.1170277	0.98516345	0.24521932	0.94708723	1.044043	0.12298255	1.1320803	1.4253731	-0.050118071	1.1133334	1.4469976	0.28120771	1.0545399	1.4890725	0.1108943	0.97895599	1.0866682	-0.088799937	0.95717297	1.1113001	0.36995177	1.0893597	0.84987704	-0.11952943	1.1386414	0.89957546	0.37667829
392	1.564	0.96571725	0.1471355	0.045106361	1.0976785	0.039496758	0.159141	0.90412319	0.286842	0.0034719426	0.95245742	0.067414144	0.18905424	0.92888456	0.27875495	0.098898935	0.97023841	0.10635442	0.098889963	0.82751891	0.3158617	0.045470656	0.88279204	0.05628006	0.13742187	1.2299917	0.52285891	-0.018710995	1.0955013	0.50151302	0.26118987	1.2356035	0.51669016	0.11022728	1.08224	0.49201791	0.13298235	1.0476005	0.8897107	-0.052602411	1.0329528	0.90638943	0.31806366	1.1190185	0.97521247	0.0075277887	1.1221204	0.98606015	0.2452637	0.95279365	1.044776	0.12276081	1.1362838	1.4264918	-0.05030758	1.1181885	1.4480944	0.28114807	1.0590681	1.4900415	0.11095581	0.98269006	1.0881378	-0.088765606	0.96275906	1.1120326	0.37018832	1.0915337	0.8508496	-0.12046768	1.1449138	0.90086287	0.37584239
393	1.568	0.98347196	0.1437082	0.045342121	1.0977227	0.039451957	0.15920865	0.91734584	0.28130508	0.0043610096	0.95271131	0.068062038	0.18920858	0.94359269	0.27357793	0.099533318	0.97043202	0.10686816	0.09921328	0.83996498	0.30773894	0.046759016	0.88306758	0.057307482	0.13775687	1.237917	0.52515513	-0.018926353	1.0967656	0.50173074	0.26118264	1.2435583	0.51909608	0.10972438	1.0840036	0.49230296	0.13323571	1.0529583	0.89083718	-0.052802717	1.0376496	0.90718184	0.31794641	1.1242038	0.97638574	0.0075222092	1.1272351	0.98693526	0.24532025	0.95909835	1.0454053	0.12239021	1.1405022	1.4275384	-0.050468914	1.1230097	1.4491439	0.28106446	1.0636067	1.4909707	0.11103469	0.98644857	1.0895745	-0.088706911	0.96835762	1.1127219	0.37041507	1.0937625	0.85180096	-0.12140499	1.1511736	0.90210146	0.37501007
394	1.572	1.0013121	0.14025657	0.045646705	1.0978194	0.039429452	0.15924444	0.93073536	0.27558971	0.0052291042	0.9529797	0.068711212	0.18936139	0.95779656	0.26834444	0.10024475	0.97078207	0.10736435	0.099601515	0.85265207	0.29938988	0.048148557	0.88328552	0.058322989	0.13797625	1.2457318	0.52734007	-0.019101401	1.0978291	0.50186322	0.26090378	1.2514145	0.52141858	0.10922577	1.0856407	0.49266234	0.13340531	1.0580835	0.89193471	-0.052976553	1.0423771	0.90793652	0.3178305	1.1294017	0.97751317	0.0075254887	1.1323562	0.98777994	0.24538242	0.96557739	1.045986	0.12196592	1.1447383	1.4285266	-0.050612333	1.1278068	1.4501521	0.28096836	1.0681423	1.491879	0.11109986	0.99022837	1.0909719	-0.088647463	0.97396307	1.1133667	0.37062646	1.0960425	0.85273322	-0.1223394	1.1574143	0.903289	0.37418263
395	1.576	1.0192328	0.1368004	0.045996278	1.0979597	0.039422315	0.15924787	0.94428545	0.26970639	0.0060782512	0.95326231	0.069363058	0.18951707	0.97182354	0.26304083	0.10099162	0.97129667	0.10792287	0.099969493	0.86559247	0.29092825	0.049520076	0.88342137	0.059304161	0.13803541	1.2533976	0.5294016	-0.019259208	1.0988706	0.5019454	0.26054608	1.2592342	0.52364455	0.10874595	1.0872244	0.49304418	0.1335436	1.0631663	0.8930074	-0.053122175	1.0471408	0.90865773	0.31771554	1.1346074	0.97860038	0.0075365158	1.1374662	0.98858579	0.24544336	0.97166897	1.0465858	0.12161002	1.14899	1.4294705	-0.050743457	1.1325902	1.4511235	0.28087482	1.0726744	1.492768	0.11113092	0.99403239	1.0923213	-0.088606019	0.97957256	1.1139703	0.37082059	1.098377	0.85364509	-0.12326669	1.1636269	0.90442276	0.37335828
